<?xml version="1.0" standalone="no"?>
<!DOCTYPE svg PUBLIC "-//W3C//DTD SVG 20010904//EN"
 "http://www.w3.org/TR/2001/REC-SVG-20010904/DTD/svg10.dtd">
<svg version="1.0" xmlns="http://www.w3.org/2000/svg"
 width="500.000000pt" height="500.000000pt" viewBox="0 0 500.000000 500.000000"
 preserveAspectRatio="xMidYMid meet">

<g transform="translate(0.000000,500.000000) scale(0.100000,-0.100000)"
fill="#000000" stroke="none">
<path d="M2500 4653 l0 -348 -22 38 -22 38 -125 -3 -124 -3 -193 -303 c-107
-166 -194 -304 -194 -307 0 -3 59 -4 132 -3 l132 3 26 45 26 45 182 3 182 2 0
-245 0 -245 -130 0 -130 0 0 -310 0 -310 130 0 130 0 0 -115 0 -115 -1250 0
c-1241 0 -1250 0 -1250 -20 0 -20 10 -20 1258 -22 691 -2 1816 -2 2500 0 1232
2 1242 2 1242 22 0 20 -9 20 -1230 20 l-1230 0 0 205 0 205 88 0 c116 0 150
-17 176 -85 10 -27 22 -60 27 -72 8 -22 13 -23 130 -23 107 0 120 2 115 16 -3
9 -9 34 -12 57 -9 58 -37 110 -68 127 -33 17 -32 21 6 45 52 33 72 69 76 138
3 51 0 72 -17 105 -42 83 -119 110 -348 125 l-173 11 0 228 c0 128 4 227 9
224 4 -3 14 -19 21 -36 l12 -30 129 0 c71 0 129 2 129 4 0 2 -67 109 -150 238
l-150 233 0 383 c0 375 0 382 -20 382 -20 0 -20 -7 -20 -347z m-106 -565 l38
-68 -101 0 -100 0 36 63 c66 115 63 112 77 90 7 -10 30 -48 50 -85z m349 -877
c64 -11 95 -40 81 -78 -13 -39 -58 -52 -181 -52 l-103 -1 0 70 0 70 78 -1 c42
0 99 -4 125 -8z"/>
<path d="M560 4070 l0 -310 135 0 135 0 2 187 3 187 109 -187 109 -187 101 0
101 0 110 190 110 189 3 -190 2 -189 130 0 130 0 0 310 0 310 -154 0 -155 0
-139 -220 -139 -219 -138 219 -139 220 -158 0 -158 0 0 -310z"/>
<path d="M2750 4305 l0 -75 120 0 120 0 0 -235 0 -235 130 0 130 0 0 235 0
235 120 0 120 0 0 75 0 75 -370 0 -370 0 0 -75z"/>
<path d="M3590 4070 l0 -310 125 0 125 0 0 125 0 125 165 0 165 0 0 -125 0
-125 130 0 130 0 0 310 0 311 -127 -3 -128 -3 -3 -122 -3 -123 -164 0 -165 0
0 125 0 125 -125 0 -125 0 0 -310z"/>
<path d="M1494 3313 c-232 -362 -354 -554 -354 -558 0 -3 59 -5 130 -5 l130 0
31 50 31 50 191 0 192 0 28 -50 28 -50 135 0 134 0 -37 59 c-21 32 -110 172
-198 310 l-160 251 -122 0 -122 0 -37 -57z m220 -235 l38 -68 -101 0 -100 0
36 63 c66 115 63 112 77 90 7 -10 30 -48 50 -85z"/>
<path d="M3150 3295 l0 -75 120 0 120 0 0 -235 0 -235 125 0 125 0 2 233 3
232 123 3 123 3 -3 72 -3 72 -367 3 -368 2 0 -75z"/>
<path d="M1370 2020 l0 -229 -122 -3 -123 -3 -3 -77 -3 -78 381 0 381 0 -3 78
-3 77 -122 3 -123 3 0 229 0 230 -130 0 -130 0 0 -230z"/>
<path d="M1935 2233 c3 -10 10 -39 15 -65 13 -64 36 -106 65 -120 l25 -11 -41
-35 c-23 -20 -48 -51 -55 -69 -27 -64 -11 -166 34 -216 52 -57 179 -86 385
-87 l137 0 0 80 0 80 -112 1 c-62 0 -129 5 -148 12 -31 11 -35 16 -35 47 0 45
28 60 120 60 39 0 94 3 123 6 l52 7 0 78 0 77 -114 4 c-137 4 -154 14 -180
109 l-17 59 -131 0 c-120 0 -130 -1 -123 -17z"/>
<path d="M570 900 l0 -310 130 0 130 0 0 125 0 125 160 0 160 0 0 -125 0 -125
135 0 135 0 0 310 0 310 -135 0 -135 0 0 -125 0 -125 -160 0 -160 0 0 125 0
125 -130 0 -130 0 0 -310z"/>
<path d="M1750 980 l0 -229 -122 -3 -123 -3 0 -75 0 -75 378 -3 378 -2 -3 77
-3 78 -122 3 -123 3 0 229 0 230 -130 0 -130 0 0 -230z"/>
<path d="M2162 1188 c8 -13 84 -131 168 -263 84 -132 157 -244 161 -249 5 -6
9 86 9 212 0 171 -3 222 -12 222 -7 0 -25 23 -40 50 l-28 50 -136 0 -136 0 14
-22z"/>
</g>
</svg>
